<svg width="125" height="72" viewBox="0 0 125 72" fill="none" xmlns="http://www.w3.org/2000/svg">
<path d="M1.11315 68.6019H1.49944L2.60429 71.4031H2.13832L1.84214 70.642H0.761043L0.469104 71.4031H0L1.11315 68.6019ZM1.75618 70.3147L1.3068 69.1114L0.840828 70.3147H1.75618Z" fill="black"/>
<path d="M5.91064 71.4042V68.6029H7.12937C7.2557 68.6029 7.37168 68.6288 7.47834 68.6816C7.58499 68.7344 7.67616 68.8028 7.75278 68.8887C7.82941 68.9747 7.88838 69.072 7.93187 69.1807C7.97536 69.2895 7.99719 69.4013 7.99719 69.5142C7.99719 69.6085 7.98364 69.6996 7.95776 69.7866C7.93187 69.8736 7.89466 69.9533 7.84703 70.0269C7.7994 70.1004 7.74134 70.1645 7.673 70.2184C7.60465 70.2722 7.53011 70.3127 7.4483 70.3385L8.10691 71.4042H7.60575L6.99791 70.4297H6.35073V71.4042H5.91064ZM6.35275 70.0382H7.12633C7.1895 70.0382 7.24646 70.0248 7.29824 69.9968C7.35001 69.9689 7.39343 69.9315 7.43071 69.8818C7.46799 69.8332 7.49696 69.7773 7.51767 69.7141C7.53838 69.6509 7.54882 69.5836 7.54882 69.5132C7.54882 69.4417 7.53636 69.3754 7.51151 69.3123C7.48665 69.2491 7.4535 69.1943 7.41311 69.1466C7.37273 69.099 7.32508 69.0617 7.27124 69.0337C7.21739 69.0057 7.16147 68.9923 7.10348 68.9923H6.35386V70.0382H6.35275Z" fill="black"/>
<path d="M13.3713 71.1991C13.2657 71.2695 13.1518 71.3255 13.0296 71.3648C12.9074 71.4042 12.778 71.4238 12.6413 71.4238C12.4415 71.4238 12.2592 71.3834 12.0945 71.3016C11.9299 71.2198 11.7891 71.1131 11.67 70.9816C11.552 70.8501 11.4598 70.6989 11.3956 70.5281C11.3314 70.3572 11.2993 70.1822 11.2993 70.003C11.2993 69.8166 11.3335 69.6375 11.4019 69.4666C11.4702 69.2957 11.5644 69.1445 11.6835 69.013C11.8036 68.8815 11.9455 68.7769 12.1101 68.6992C12.2748 68.6215 12.4539 68.5832 12.6486 68.5832C12.8484 68.5832 13.0306 68.6246 13.1953 68.7075C13.3599 68.7903 13.5007 68.8991 13.6177 69.0327C13.7347 69.1663 13.8259 69.3185 13.8901 69.4883C13.9543 69.6582 13.9864 69.8311 13.9864 70.0071C13.9864 70.1946 13.9533 70.3707 13.888 70.5384C13.8228 70.7051 13.7307 70.8542 13.6116 70.9858L13.9781 71.4041H13.5515L13.3713 71.1991ZM12.6455 71.0251C12.7324 71.0251 12.8132 71.0137 12.8899 70.9899C12.9665 70.9661 13.0358 70.9329 13.099 70.8915L12.7004 70.4297H13.1269L13.3278 70.6627C13.3962 70.5705 13.448 70.467 13.4811 70.353C13.5153 70.2381 13.5329 70.1221 13.5329 70.004C13.5329 69.8705 13.5122 69.742 13.4697 69.6198C13.4272 69.4976 13.3682 69.3889 13.2905 69.2947C13.2128 69.2004 13.1197 69.1248 13.0099 69.0679C12.9012 69.0109 12.779 68.983 12.6455 68.983C12.5036 68.983 12.3772 69.013 12.2664 69.072C12.1556 69.131 12.0625 69.2087 11.9858 69.305C11.9092 69.4013 11.8512 69.5101 11.8098 69.6323C11.7694 69.7545 11.7487 69.8787 11.7487 70.0051C11.7487 70.1366 11.7694 70.264 11.8119 70.3882C11.8544 70.5125 11.9133 70.6213 11.991 70.7155C12.0687 70.8097 12.1629 70.8864 12.2726 70.9423C12.3855 70.9972 12.5088 71.0251 12.6455 71.0251Z" fill="black"/>
<path d="M18.5643 71.0251C18.7114 71.0251 18.8336 70.9961 18.9309 70.9381C19.0282 70.8801 19.1069 70.8046 19.1659 70.7114C19.2249 70.6182 19.2674 70.5115 19.2922 70.3914C19.3171 70.2712 19.3295 70.149 19.3295 70.0227V68.6019H19.7759V70.0227C19.7759 70.2153 19.753 70.3955 19.7085 70.5653C19.664 70.7352 19.5925 70.8833 19.4952 71.0106C19.3978 71.138 19.2726 71.2385 19.1183 71.313C18.964 71.3866 18.7797 71.4238 18.5643 71.4238C18.3407 71.4238 18.1521 71.3845 17.9978 71.3078C17.8436 71.2302 17.7193 71.1266 17.6251 70.9961C17.5309 70.8657 17.4616 70.7165 17.4201 70.5477C17.3777 70.3789 17.3569 70.205 17.3569 70.0227V68.6019H17.799V70.0227C17.799 70.1522 17.8115 70.2764 17.8364 70.3955C17.8612 70.5156 17.9036 70.6213 17.9627 70.7155C18.0217 70.8087 18.1004 70.8843 18.1998 70.9402C18.2982 70.9972 18.4194 71.0251 18.5643 71.0251Z" fill="black"/>
<path d="M23.3223 71.4042V68.6029H23.7644V71.4042H23.3223Z" fill="black"/>
<path d="M29.4098 68.9934H28.4789V71.4042H28.0337V68.9934H27.0986V68.6029H29.4109V68.9934H29.4098Z" fill="black"/>
<path d="M34.665 71.0127V71.4031H32.7432V68.6019H34.6288V68.9923H33.1843V69.7897H34.4351V70.1563H33.1843V71.0127H34.665Z" fill="black"/>
<path d="M40.1377 68.9934H39.2067V71.4042H38.7615V68.9934H37.8264V68.6029H40.1387V68.9934H40.1377Z" fill="black"/>
<path d="M44.6399 71.0251C44.787 71.0251 44.9091 70.9961 45.0065 70.9381C45.1038 70.8801 45.1826 70.8046 45.2416 70.7114C45.3006 70.6182 45.343 70.5115 45.3679 70.3914C45.3927 70.2712 45.4052 70.149 45.4052 70.0227V68.6019H45.8515V70.0227C45.8515 70.2153 45.8298 70.3955 45.7842 70.5653C45.7397 70.7352 45.6682 70.8833 45.5708 71.0106C45.4735 71.138 45.3482 71.2385 45.194 71.313C45.0397 71.3866 44.8553 71.4238 44.6399 71.4238C44.4162 71.4238 44.2278 71.3845 44.0735 71.3078C43.9203 71.2302 43.795 71.1266 43.7008 70.9961C43.6055 70.8657 43.5371 70.7165 43.4957 70.5477C43.4533 70.3789 43.4326 70.205 43.4326 70.0227V68.6019H43.8747V70.0227C43.8747 70.1522 43.8872 70.2764 43.912 70.3955C43.9369 70.5156 43.9793 70.6213 44.0383 70.7155C44.0974 70.8087 44.1761 70.8843 44.2755 70.9402C44.3738 70.9972 44.4949 71.0251 44.6399 71.0251Z" fill="black"/>
<path d="M49.3979 71.4042V68.6029H50.6168C50.7431 68.6029 50.8591 68.6288 50.9657 68.6816C51.0724 68.7344 51.1635 68.8028 51.2401 68.8887C51.3167 68.9747 51.3758 69.072 51.4193 69.1807C51.4628 69.2895 51.4845 69.4013 51.4845 69.5142C51.4845 69.6085 51.471 69.6996 51.4452 69.7866C51.4193 69.8736 51.382 69.9533 51.3343 70.0269C51.2867 70.1004 51.2287 70.1645 51.1604 70.2184C51.0921 70.2722 51.0175 70.3127 50.9357 70.3385L51.5942 71.4042H51.0931L50.4852 70.4297H49.838V71.4042H49.3979ZM49.8402 70.0382H50.6136C50.6768 70.0382 50.7338 70.0248 50.7855 69.9968C50.8373 69.9689 50.8808 69.9315 50.9181 69.8818C50.9554 69.8332 50.9844 69.7773 51.0051 69.7141C51.0258 69.6509 51.0371 69.5836 51.0371 69.5132C51.0371 69.4417 51.0247 69.3754 50.9998 69.3123C50.975 69.2491 50.9419 69.1943 50.9015 69.1466C50.8611 69.099 50.8135 69.0617 50.7597 69.0337C50.7058 69.0057 50.6499 68.9923 50.5919 68.9923H49.8422V70.0382H49.8402Z" fill="black"/>
<path d="M55.7467 68.6019H56.1329L57.2377 71.4031H56.7718L56.4757 70.642H55.3946L55.1025 71.4031H54.6335L55.7467 68.6019ZM56.3897 70.3147L55.9403 69.1114L55.4744 70.3147H56.3897Z" fill="black"/>
<path d="M65.1985 71.9168V68.3461H65.5692V71.9168H65.1985Z" fill="black"/>
<path d="M73.9358 71.4042V68.6029H74.378V71.4042H73.9358Z" fill="black"/>
<path d="M78.4102 69.4314V71.4042H77.968V68.6029H78.3149L79.9168 70.6233V68.606H80.3631V71.4042H79.9965L78.4102 69.4314Z" fill="black"/>
<path d="M86.0088 68.9934H85.0778V71.4042H84.6326V68.9934H83.6975V68.6029H86.0098V68.9934H86.0088Z" fill="black"/>
<path d="M91.2649 71.0127V71.4031H89.343V68.6019H91.2286V68.9923H89.7842V69.7897H91.0351V70.1563H89.7842V71.0127H91.2649Z" fill="black"/>
<path d="M94.6809 71.4042V68.6029H95.8996C96.026 68.6029 96.1419 68.6288 96.2486 68.6816C96.3553 68.7344 96.4464 68.8028 96.523 68.8887C96.5997 68.9747 96.6586 69.072 96.7021 69.1807C96.7456 69.2895 96.7674 69.4013 96.7674 69.5142C96.7674 69.6085 96.7539 69.6996 96.728 69.7866C96.7021 69.8736 96.6648 69.9533 96.6172 70.0269C96.5696 70.1004 96.5116 70.1645 96.4433 70.2184C96.3749 70.2722 96.3004 70.3127 96.2186 70.3385L96.8772 71.4042H96.376L95.7682 70.4297H95.121V71.4042H94.6809ZM95.123 70.0382H95.8965C95.9597 70.0382 96.0166 70.0248 96.0684 69.9968C96.1202 69.9689 96.1637 69.9315 96.201 69.8818C96.2383 69.8332 96.2672 69.7773 96.2879 69.7141C96.3086 69.6509 96.319 69.5836 96.319 69.5132C96.319 69.4417 96.3066 69.3754 96.2818 69.3123C96.2569 69.2491 96.2238 69.1943 96.1834 69.1466C96.143 69.099 96.0953 69.0617 96.0415 69.0337C95.9877 69.0057 95.9317 68.9923 95.8737 68.9923H95.124V70.0382H95.123Z" fill="black"/>
<path d="M100.248 71.4042V68.6029H100.69V71.4042H100.248Z" fill="black"/>
<path d="M105.445 71.4238C105.245 71.4238 105.063 71.3834 104.898 71.3037C104.733 71.2239 104.593 71.1173 104.474 70.9837C104.356 70.8511 104.264 70.6989 104.2 70.5281C104.136 70.3572 104.104 70.1822 104.104 70.003C104.104 69.8166 104.138 69.6375 104.206 69.4666C104.275 69.2957 104.369 69.1445 104.488 69.013C104.608 68.8815 104.75 68.7769 104.915 68.6992C105.079 68.6215 105.258 68.5832 105.453 68.5832C105.653 68.5832 105.835 68.6246 106 68.7075C106.164 68.7903 106.305 68.8991 106.422 69.0327C106.539 69.1663 106.63 69.3185 106.695 69.4883C106.759 69.6582 106.791 69.8311 106.791 70.0071C106.791 70.1946 106.758 70.3727 106.69 70.5436C106.623 70.7144 106.529 70.8656 106.409 70.9951C106.288 71.1256 106.145 71.2291 105.981 71.3068C105.814 71.3845 105.636 71.4238 105.445 71.4238ZM104.553 70.003C104.553 70.1345 104.574 70.2619 104.616 70.3862C104.659 70.5104 104.719 70.6192 104.795 70.7134C104.873 70.8077 104.967 70.8843 105.077 70.9402C105.188 70.9972 105.311 71.0251 105.448 71.0251C105.59 71.0251 105.715 70.9951 105.825 70.9361C105.933 70.877 106.027 70.7983 106.103 70.701C106.18 70.6036 106.237 70.4949 106.277 70.3737C106.317 70.2526 106.336 70.1294 106.336 70.003C106.336 69.8694 106.315 69.741 106.273 69.6188C106.231 69.4966 106.171 69.3889 106.094 69.2957C106.016 69.2025 105.923 69.1269 105.813 69.071C105.704 69.0141 105.582 68.9861 105.448 68.9861C105.306 68.9861 105.18 69.015 105.069 69.0751C104.958 69.1352 104.865 69.2108 104.788 69.306C104.712 69.4003 104.654 69.509 104.612 69.6312C104.573 69.7524 104.553 69.8767 104.553 70.003Z" fill="black"/>
<path d="M110.206 71.4042V68.6029H111.425C111.551 68.6029 111.667 68.6288 111.774 68.6816C111.88 68.7344 111.972 68.8028 112.048 68.8887C112.125 68.9747 112.184 69.072 112.227 69.1807C112.271 69.2895 112.293 69.4013 112.293 69.5142C112.293 69.6085 112.279 69.6996 112.253 69.7866C112.227 69.8736 112.19 69.9533 112.142 70.0269C112.095 70.1004 112.037 70.1645 111.968 70.2184C111.9 70.2722 111.826 70.3127 111.744 70.3385L112.402 71.4042H111.901L111.293 70.4297H110.646V71.4042H110.206ZM110.648 70.0382H111.422C111.485 70.0382 111.542 70.0248 111.594 69.9968C111.645 69.9689 111.689 69.9315 111.726 69.8818C111.763 69.8332 111.792 69.7773 111.813 69.7141C111.834 69.6509 111.845 69.5836 111.845 69.5132C111.845 69.4417 111.833 69.3754 111.808 69.3123C111.783 69.2491 111.75 69.1943 111.71 69.1466C111.669 69.099 111.622 69.0617 111.568 69.0337C111.514 69.0057 111.458 68.9923 111.4 68.9923H110.65V70.0382H110.648Z" fill="black"/>
<path d="M117.696 71.0127V71.4031H115.774V68.6019H117.659V68.9923H116.215V69.7897H117.466V70.1563H116.215V71.0127H117.696Z" fill="black"/>
<path d="M122.709 69.2615C122.684 69.2325 122.645 69.2015 122.594 69.1684C122.545 69.1352 122.486 69.1041 122.418 69.0751C122.351 69.0461 122.278 69.0223 122.198 69.0037C122.118 68.985 122.035 68.9757 121.951 68.9757C121.765 68.9757 121.627 69.0099 121.539 69.0782C121.451 69.1466 121.407 69.2418 121.407 69.362C121.407 69.4303 121.42 69.4862 121.448 69.5297C121.476 69.5732 121.519 69.6115 121.577 69.6447C121.635 69.6778 121.707 69.7068 121.793 69.7317C121.88 69.7566 121.981 69.7835 122.097 69.8125C122.239 69.8466 122.368 69.8849 122.482 69.9274C122.597 69.9698 122.693 70.0206 122.771 70.0807C122.85 70.1418 122.911 70.2153 122.955 70.3033C122.998 70.3914 123.02 70.4991 123.02 70.6254C123.02 70.7673 122.993 70.8895 122.939 70.992C122.885 71.0945 122.812 71.1784 122.719 71.2426C122.626 71.3068 122.517 71.3544 122.394 71.3845C122.27 71.4145 122.137 71.43 121.995 71.43C121.782 71.43 121.577 71.3979 121.378 71.3337C121.179 71.2695 121 71.1753 120.839 71.0521L121.04 70.673C121.074 70.7072 121.124 70.7455 121.188 70.788C121.252 70.8304 121.328 70.8687 121.413 70.904C121.498 70.9392 121.591 70.9692 121.692 70.9951C121.791 71.0199 121.895 71.0324 122.003 71.0324C122.177 71.0324 122.311 71.0023 122.406 70.9412C122.501 70.8812 122.548 70.7911 122.548 70.673C122.548 70.6016 122.53 70.5426 122.494 70.4949C122.458 70.4473 122.408 70.4059 122.342 70.3706C122.276 70.3354 122.196 70.3033 122.102 70.2743C122.006 70.2453 121.899 70.2153 121.777 70.1832C121.638 70.1459 121.516 70.1076 121.413 70.0672C121.309 70.0268 121.222 69.9771 121.154 69.9191C121.086 69.8612 121.034 69.7938 120.999 69.7162C120.964 69.6385 120.945 69.5442 120.945 69.4345C120.945 69.2978 120.971 69.1756 121.024 69.0689C121.076 68.9623 121.148 68.8732 121.239 68.8007C121.33 68.7282 121.437 68.6733 121.561 68.6371C121.684 68.5998 121.819 68.5822 121.964 68.5822C122.153 68.5822 122.328 68.6122 122.489 68.6733C122.649 68.7334 122.79 68.809 122.911 68.898L122.709 69.2615Z" fill="black"/>
<path d="M46.3722 33.6646V34.2269H38.6329V28.2154C36.5143 32.0222 33.2288 34.5293 29.0785 34.5293C23.112 34.5293 21.1239 30.8105 21.1239 26.313V14.4225C21.1239 13.0855 20.0397 12.0013 18.7029 12.0013H18.6594V11.439H26.4422C26.4422 11.439 26.4422 24.275 26.4422 26.1349C26.4422 29.5937 28.3443 31.8855 32.9274 31.3231C35.9531 30.9348 38.6339 27.9068 38.6339 25.702V14.466C38.6339 13.1042 37.5301 12.0013 36.1695 12.0013V11.439H43.9098V31.2009C43.9087 32.5617 45.0116 33.6646 46.3722 33.6646Z" fill="black"/>
<path d="M85.5904 21.4717C90.1735 23.8929 92.0756 25.6648 91.3829 29.4715C90.5182 33.967 85.7622 34.5303 82.6071 34.5303C80.1851 34.5303 76.7691 33.7951 73.2246 32.8444V26.0127H73.6574C77.2899 33.2338 79.7098 33.9266 81.9589 34.0985C84.0775 34.2724 86.368 33.9266 86.7584 31.2455C87.2771 27.7431 82.9106 26.2737 79.451 24.2833C75.949 22.3385 73.7868 20.1327 74.2186 16.5433C74.9114 11.1822 80.3156 10.8788 82.6496 10.8788C84.8117 10.8788 87.9254 11.7435 90.7782 12.5222V18.6622H90.3454C87.1022 12.2199 85.2435 11.3551 82.4322 11.3551C80.7899 11.3551 78.8442 12.2198 78.5418 14.8574C78.1959 17.8389 82.0449 19.5248 85.5904 21.4717Z" fill="black"/>
<path d="M125 30.8965C124.352 32.366 123.054 34.5293 120.029 34.5293C117.52 34.5293 115.402 32.541 115.488 29.7729C114.495 32.1516 111.77 34.5293 107.317 34.5293C103.427 34.5293 99.7942 32.7129 99.7942 27.913C99.7942 19.2659 110.386 20.0011 115.402 19.9131V15.7626C115.402 12.8226 114.019 11.439 111.079 11.439C108.57 11.439 106.105 12.5202 102.863 18.8765H102.475V12.6506C105.761 11.6554 108.744 10.8767 111.295 10.8767C117.045 10.8767 120.72 12.3907 120.72 18.1848V28.6917C120.72 31.2869 121.325 31.9776 122.537 31.9776C123.446 31.9776 124.136 31.1989 124.482 30.5941L125 30.8965ZM115.401 29.2551C115.401 28.6068 115.401 20.434 115.401 20.434C109.737 20.2601 104.895 21.86 104.895 27.3528C104.896 34.2704 112.115 34.6152 115.401 29.2551Z" fill="black"/>
<path d="M10.2037 33.6646V34.2269H0V33.6646C1.36167 33.6646 2.46444 32.5607 2.46444 31.1999V2.98351C2.46444 1.64658 1.3803 0.562337 0.0434824 0.562337H0V0H7.73926V31.1999C7.73926 32.5607 8.84307 33.6646 10.2037 33.6646Z" fill="black"/>
<path d="M62.5643 31.4495V11.6523H61.5081C61.3683 11.6523 61.2554 11.5394 61.2554 11.3996C61.2554 11.3344 61.2813 11.2754 61.3217 11.2298C61.3269 11.2247 61.331 11.2194 61.3362 11.2143C62.6046 9.93014 63.49 8.26701 63.8047 6.40919H63.0034C61.7877 9.48382 58.791 11.6596 55.2848 11.6596C55.1316 11.6596 54.9794 11.6544 54.8271 11.6461V12.2136C55.8088 12.2136 56.6506 12.8008 57.0286 13.6417C57.0959 13.7898 57.1497 13.9451 57.1859 14.1077C57.2232 14.2775 57.247 14.4525 57.247 14.6337V31.4484C57.247 32.7854 56.164 33.8686 54.8271 33.8686V34.4309H64.9831V33.8686C63.6484 33.8696 62.5643 32.7864 62.5643 31.4495Z" fill="black"/>
<path d="M15.0912 56.6782C14.7029 57.5584 13.9263 58.8529 12.1142 58.8529C10.6127 58.8529 9.34427 57.662 9.39604 56.0051C8.80167 57.428 7.16974 58.8529 4.50336 58.8529C2.17455 58.8529 0 57.7656 0 54.8918C0 49.715 6.34135 50.1551 9.34427 50.1023V47.6169C9.34427 45.8564 8.51588 45.029 6.75555 45.029C5.25409 45.029 3.77852 45.6762 1.83698 49.482H1.604V45.7549C3.57142 45.1595 5.35764 44.6924 6.88498 44.6924C10.328 44.6924 12.5274 45.5986 12.5274 49.0678V55.3578C12.5274 56.9112 12.8898 57.3254 13.6146 57.3254C14.1583 57.3254 14.5725 56.8594 14.7796 56.497L15.0912 56.6782ZM9.34427 55.6955C9.34427 55.3071 9.34427 50.414 9.34427 50.414C5.95305 50.3094 3.05469 51.2673 3.05469 54.5563C3.05469 58.6986 7.37788 58.9047 9.34427 55.6955Z" fill="black"/>
<path d="M30.78 45.3655L22.3676 58.1021C23.7138 58.1021 26.172 58.1021 26.5614 58.1021C29.5384 58.1021 30.0561 56.5228 30.315 53.9598C30.3668 53.9598 30.6785 53.9598 30.6785 53.9598V58.6717H18.875V58.3351L27.1319 45.5737C25.7599 45.5737 23.6112 45.5737 23.2488 45.5737C20.2718 45.5737 19.781 47.1778 19.4952 49.7409C19.4434 49.7409 19.1328 49.7409 19.1328 49.7409V45.029H30.781V45.3655H30.78Z" fill="black"/>
<path d="M49.082 51.7862C49.0562 51.7862 38.7023 51.7862 38.7023 51.7862C38.9353 55.6178 41.523 57.3524 44.3716 57.3524C46.4415 57.3524 47.7369 56.3945 48.3841 55.6178L48.643 55.8249C47.8664 57.1453 45.9766 58.8529 42.896 58.8529C38.9353 58.8529 35.1309 56.3676 35.1309 51.7862C35.1309 46.9448 38.5987 44.6924 42.5077 44.6924C46.4156 44.6924 49.3409 46.9189 49.082 51.7862ZM42.5067 45.029C40.4098 45.029 38.5729 47.6169 38.6754 51.2166H45.7416C45.9238 47.7474 45.1213 45.029 42.5067 45.029Z" fill="black"/>
<path d="M83.3712 51.7862C83.3454 51.7862 72.9916 51.7862 72.9916 51.7862C73.2246 55.6178 75.8123 57.3524 78.6609 57.3524C80.7308 57.3524 82.0262 56.3945 82.6734 55.6178L82.9323 55.8249C82.1557 57.1453 80.2659 58.8529 77.1853 58.8529C73.2246 58.8529 69.4202 56.3676 69.4202 51.7862C69.4202 46.9448 72.888 44.6924 76.797 44.6924C80.706 44.6924 83.6301 46.9189 83.3712 51.7862ZM76.797 45.029C74.7001 45.029 72.8622 47.6169 72.9657 51.2166H80.0318C80.213 47.7474 79.4106 45.029 76.797 45.029Z" fill="black"/>
<path d="M103.429 58.3351V58.6717H98.796V55.7721C98.2005 57.0417 96.4144 58.8529 93.8526 58.8529C90.8238 58.8529 87.5361 56.5488 87.5361 51.7861C87.5361 46.9966 90.8228 44.6924 93.8526 44.6924C96.4144 44.6924 98.2005 46.5047 98.796 47.7733V41.9823C98.796 41.1818 98.1467 40.5325 97.3463 40.5325V40.196H101.979V56.8853C101.98 57.6858 102.628 58.3351 103.429 58.3351ZM98.796 48.318C98.3041 47.4885 97.3722 46.4539 95.8977 46.195C92.4029 45.5737 90.8238 48.2403 90.8238 51.7861C90.8238 55.3071 92.4029 57.9737 95.8977 57.3524C97.3722 57.0935 98.3051 56.0838 98.796 55.2294V48.318Z" fill="black"/>
<path d="M123.021 51.7862C123.021 56.7051 118.984 58.8529 115.204 58.8529C111.425 58.8529 107.387 56.7041 107.387 51.7862C107.387 46.8941 111.425 44.7193 115.204 44.7193C118.984 44.7193 123.021 46.893 123.021 51.7862ZM119.605 51.7862C119.605 47.9545 118.026 45.029 115.204 45.029C112.383 45.029 110.803 47.9545 110.803 51.7862C110.803 55.6178 112.383 58.5433 115.204 58.5433C118.026 58.5423 119.605 55.6178 119.605 51.7862Z" fill="black"/>
<path d="M61.2117 56.2422L56.5116 45.3655H58.2461V45.029H51.3093V45.3655C52.2868 45.3655 53.1732 45.9372 53.5771 46.8278L58.945 58.6717H60.1876L61.2117 56.2422Z" fill="black"/>
<path d="M61.948 45.029C61.948 45.029 61.948 45.3138 61.948 45.3656C64.1474 45.5986 64.8733 46.7636 63.7083 49.5327H64.0376L64.2778 48.9631C65.2885 46.6072 65.7534 45.7788 67.1254 45.3656C67.1254 45.3138 67.1254 45.029 67.1254 45.029H61.948Z" fill="black"/>
</svg>
